<svg width="26" height="26" viewBox="0 0 26 26" fill="none" xmlns="http://www.w3.org/2000/svg">
<path d="M13 0.40625C6.04297 0.40625 0.40625 6.04297 0.40625 13C0.40625 19.957 6.04297 25.5938 13 25.5938C19.957 25.5938 25.5938 19.957 25.5938 13C25.5938 6.04297 19.957 0.40625 13 0.40625ZM13 23.1562C7.38867 23.1562 2.84375 18.6113 2.84375 13C2.84375 7.38867 7.38867 2.84375 13 2.84375C18.6113 2.84375 23.1562 7.38867 23.1562 13C23.1562 18.6113 18.6113 23.1562 13 23.1562ZM18.1695 9.84141L15.0109 13L18.1695 16.1586C18.4082 16.3973 18.4082 16.7832 18.1695 17.0219L17.0219 18.1695C16.7832 18.4082 16.3973 18.4082 16.1586 18.1695L13 15.0109L9.84141 18.1695C9.60273 18.4082 9.2168 18.4082 8.97813 18.1695L7.83047 17.0219C7.5918 16.7832 7.5918 16.3973 7.83047 16.1586L10.9891 13L7.83047 9.84141C7.5918 9.60273 7.5918 9.2168 7.83047 8.97813L8.97813 7.83047C9.2168 7.5918 9.60273 7.5918 9.84141 7.83047L13 10.9891L16.1586 7.83047C16.3973 7.5918 16.7832 7.5918 17.0219 7.83047L18.1695 8.97813C18.4082 9.2168 18.4082 9.60273 18.1695 9.84141Z" fill="#C81414"/>
</svg>
