<svg width="29" height="26" viewBox="0 0 29 26" fill="none" xmlns="http://www.w3.org/2000/svg">
<g clip-path="url(#clip0_3877_3550)">
<path d="M20.2698 4.22578L24.8111 8.80625C25.0024 8.99922 25.0024 9.31406 24.8111 9.50703L13.8153 20.5977L9.14306 21.1207C8.51875 21.1918 7.9901 20.6586 8.06059 20.0289L8.57917 15.3164L19.575 4.22578C19.7663 4.03281 20.0785 4.03281 20.2698 4.22578ZM28.426 3.06289L25.9691 0.584766C25.2038 -0.187109 23.9602 -0.187109 23.1899 0.584766L21.4076 2.38242C21.2163 2.57539 21.2163 2.89023 21.4076 3.0832L25.949 7.66367C26.1403 7.85664 26.4524 7.85664 26.6438 7.66367L28.426 5.86602C29.1913 5.08906 29.1913 3.83477 28.426 3.06289ZM19.3333 17.5813V22.7508H3.22222V6.50078H14.792C14.9531 6.50078 15.1042 6.43477 15.22 6.32305L17.2339 4.2918C17.6165 3.90586 17.3446 3.25078 16.8059 3.25078H2.41667C1.08247 3.25078 0 4.34258 0 5.68828V23.5633C0 24.909 1.08247 26.0008 2.41667 26.0008H20.1389C21.4731 26.0008 22.5556 24.909 22.5556 23.5633V15.55C22.5556 15.0066 21.9061 14.7375 21.5234 15.1184L19.5096 17.1496C19.3988 17.2664 19.3333 17.4188 19.3333 17.5813Z" fill="#37A073"/>
</g>
<defs>
<clipPath id="clip0_3877_3550">
<rect width="29" height="26" fill="white"/>
</clipPath>
</defs>
</svg>
