<svg width="137" height="32" viewBox="0 0 137 32" fill="none" xmlns="http://www.w3.org/2000/svg">
<g clip-path="url(#clip0_3863_2389)">
<path d="M0 29.09V8.86762C0 8.79855 0.0350922 8.7381 0.0965036 8.6863C0.157915 8.63449 0.271965 8.59995 0.412333 8.58268C0.552702 8.56541 0.684298 8.54814 0.789575 8.53951C0.894851 8.53087 1.05277 8.52224 1.25455 8.5136C1.45633 8.50497 1.58792 8.5136 1.66688 8.5136H14.186C15.2125 8.5136 16.1863 8.66903 17.0987 8.98851C18.0111 9.30799 18.827 9.77426 19.5376 10.3787C20.2482 10.9831 20.8097 11.7689 21.222 12.7273C21.6343 13.6858 21.8361 14.7737 21.8361 15.9739C21.8361 16.8633 21.7309 17.675 21.5203 18.4175C21.3097 19.1601 21.029 19.7818 20.6869 20.3085C20.3447 20.8352 19.9236 21.3015 19.4235 21.716C18.9235 22.1304 18.4146 22.4672 17.897 22.7176C17.3794 22.968 16.8004 23.1839 16.1775 23.3652C15.5546 23.5465 14.9756 23.6674 14.4404 23.7538C13.9053 23.8401 13.3526 23.8919 12.7648 23.9351H9.7995C9.72054 25.5239 9.67668 27.3026 9.67668 29.2799V30.981C9.64158 31.3436 9.4749 31.5249 9.15029 31.5249H0.40356C0.140369 30.8255 0 30.0139 0 29.0986V29.09ZM8.69409 18.4607L9.18539 19.1256C9.60649 19.1256 10.0101 19.091 10.3961 19.0306C10.7821 18.9702 11.1593 18.8665 11.5278 18.7111C11.8963 18.5557 12.2209 18.3657 12.4841 18.124C12.7472 17.8822 12.9666 17.58 13.1333 17.2173C13.2999 16.8547 13.3789 16.4316 13.3789 15.9653C13.3789 15.6113 13.3263 15.2918 13.2298 15.0155C13.1333 14.7392 13.0104 14.506 12.8788 14.3334C12.7472 14.1607 12.5455 14.0052 12.3086 13.8671C12.0717 13.7289 11.8436 13.6339 11.6331 13.5735C11.4225 13.5131 11.1593 13.4613 10.8347 13.4181C10.5101 13.3749 10.2469 13.3663 10.0364 13.3576C9.82582 13.349 9.55385 13.3576 9.22925 13.3576C8.87833 13.5217 8.70287 15.2227 8.70287 18.4607H8.69409Z" fill="#FF6726"/>
<path d="M27.4768 31.5427C27.1873 31.5427 26.8539 31.5427 26.4767 31.5686C26.0994 31.5945 25.8011 31.5945 25.5994 31.6031C25.3976 31.6117 25.1607 31.6031 24.8975 31.6031C24.6343 31.6031 24.4413 31.5513 24.3009 31.4995C24.1606 31.4477 24.029 31.3613 23.8798 31.2491C23.7307 31.1368 23.6254 30.9901 23.5552 30.7915C23.485 30.5929 23.4324 30.3597 23.3885 30.0748C23.3447 29.7898 23.3184 29.4531 23.3184 29.0559C23.3184 26.8713 23.3622 23.8837 23.4412 20.1104C23.5201 16.3371 23.564 13.5567 23.564 11.7866C23.564 9.60204 23.6781 8.445 23.9062 8.32411H29.6437C30.6614 8.32411 31.4159 8.38455 31.916 8.4968C32.416 8.60905 32.7494 8.79038 32.9073 9.02352C33.0652 9.25665 33.153 9.61067 33.153 10.0856C33.153 10.2237 33.1442 10.5 33.1179 10.9145C33.0915 11.329 33.0828 11.6657 33.0828 11.942V12.6414C33.0828 12.9696 33.0652 13.4531 33.0389 14.1007C33.0126 14.7483 32.995 15.2318 32.995 15.5599V15.8622C33.0126 15.9226 33.0301 16.0003 33.0301 16.1039H33.6442C33.8197 16.1039 34.0829 16.1039 34.4426 16.1212C34.8023 16.1385 35.0655 16.1385 35.2409 16.1385C35.7147 16.1385 36.0656 16.1039 36.2937 16.0435V9.73156C36.2937 9.22211 36.32 8.86809 36.3727 8.64359C36.4253 8.41909 36.4955 8.28957 36.592 8.23776C36.6885 8.18596 36.8552 8.15142 37.1008 8.15142C37.2324 8.15142 37.4517 8.15142 37.75 8.16869C38.0483 8.18596 38.2676 8.18596 38.3992 8.18596L39.5397 8.14278C40.3118 8.10824 40.9961 8.09961 41.6102 8.09961C44.4088 8.09961 45.8037 8.40182 45.8037 9.00625C45.8037 9.17031 45.8037 9.40344 45.8212 9.70565C45.8388 10.0079 45.8388 10.241 45.8388 10.4051C45.8388 10.7591 45.8388 11.2772 45.8212 11.9507C45.8037 12.6242 45.8037 13.1422 45.8037 13.4963C45.8037 14.5497 45.8212 16.1212 45.8476 18.2021C45.8739 20.2831 45.8914 21.8546 45.8914 22.908C45.8914 23.003 45.8914 23.1153 45.8739 23.2534C45.8563 23.3916 45.8563 23.4779 45.8563 23.5211V24.2464C45.8563 24.894 45.8651 25.3775 45.8914 25.7057V26.0424C45.8914 26.0424 45.8563 26.146 45.8563 26.2237C45.8563 26.7591 45.8651 27.5707 45.8914 28.6673C45.9177 29.7639 45.9265 30.5756 45.9265 31.1109C45.8563 31.4736 44.865 31.6549 42.9612 31.6549H36.5481L36.0832 31.016V30.0143C36.0832 29.3322 36.0832 28.3306 36.1007 27.0095C36.1182 25.6884 36.1182 24.6781 36.1182 24.0046C36.1182 23.7715 36.0919 23.6161 36.0305 23.5297C35.9691 23.4434 35.855 23.4002 35.6796 23.4002H35.1269C34.425 23.4002 33.7934 23.4434 33.2144 23.5211C33.2144 24.3587 33.2056 25.6193 33.1793 27.3117C33.153 29.0041 33.1442 30.2647 33.1442 31.1109C33.0214 31.4132 31.7317 31.5686 29.2928 31.5686H27.4768V31.5427Z" fill="#FF6726"/>
<path d="M47.8047 19.7394V18.0729C47.91 16.6568 48.217 15.3616 48.7434 14.196C49.2698 13.0303 49.9365 12.0459 50.7437 11.2429C51.5508 10.4399 52.4807 9.76639 53.5423 9.21378C54.6038 8.66116 55.7092 8.26396 56.8672 8.00492C58.0253 7.74589 59.2184 7.625 60.4554 7.625C61.131 7.625 61.8416 7.67681 62.5785 7.78906C63.3154 7.90131 64.0962 8.074 64.9121 8.32441C65.728 8.57481 66.5264 8.9202 67.2809 9.3951C68.0353 9.87001 68.6582 10.4226 69.1583 11.053C70.176 12.2791 70.9129 13.557 71.3691 14.904C71.8253 16.251 72.0534 17.7362 72.0534 19.3768C72.0885 22.7961 71.3252 25.5505 69.7724 27.6315L69.0969 28.5381C68.5003 29.3498 67.6493 30.0233 66.5352 30.5673C65.421 31.1112 64.3156 31.4825 63.2014 31.6898C62.0872 31.897 60.973 32.0006 59.8413 32.0006C58.5166 32.0006 57.2884 31.8711 56.1742 31.6034C55.06 31.3357 54.0862 30.9904 53.2791 30.5414C52.472 30.0924 51.7438 29.557 51.1034 28.918C50.4629 28.2791 49.9453 27.6056 49.5418 26.8975C49.1382 26.1895 48.8048 25.421 48.5416 24.5921C48.2784 23.7632 48.0942 22.9515 47.9889 22.1657C47.8836 21.38 47.831 20.5683 47.831 19.7394H47.8047ZM60.0782 13.7297C59.6571 13.7297 59.2798 13.8247 58.9465 14.0146C58.6131 14.2046 58.3411 14.4377 58.1306 14.714C57.92 14.9904 57.7358 15.353 57.5866 15.8106C57.4375 16.2683 57.3234 16.6827 57.2445 17.054C57.1655 17.4253 57.1129 17.8916 57.0778 18.4528C57.0427 19.0141 57.0164 19.4458 57.0076 19.7567C56.9988 20.0675 57.0076 20.4647 57.0076 20.9483C57.0076 21.4318 57.0252 21.8549 57.0603 22.278C57.0954 22.7011 57.1743 23.1415 57.2884 23.6164C57.4024 24.0913 57.5603 24.4971 57.7533 24.8425C57.9463 25.1879 58.2095 25.4814 58.5429 25.7232C58.8763 25.965 59.2623 26.0859 59.6922 26.1118C60.1484 26.1118 60.5432 26.0427 60.8941 25.8959C61.245 25.7491 61.5345 25.5592 61.7714 25.3347C62.0083 25.1102 62.21 24.7993 62.3767 24.4194C62.5434 24.0395 62.6662 23.6682 62.754 23.3142C62.8417 22.9601 62.9119 22.5198 62.9558 21.9931C62.9996 21.4663 63.0259 21.0173 63.0435 20.6374C63.061 20.2575 63.061 19.7826 63.061 19.2041C63.061 18.781 63.0522 18.3838 63.0259 18.0211C62.9996 17.6585 62.9558 17.2526 62.8943 16.8036C62.8329 16.3546 62.7276 15.9661 62.5873 15.6293C62.4469 15.2926 62.2714 14.9731 62.0609 14.6709C61.8503 14.3687 61.5872 14.1442 61.2538 13.9801C60.9204 13.816 60.5344 13.7383 60.1045 13.7383L60.0782 13.7297Z" fill="#FF6726"/>
<path d="M74.3955 29.09V8.86762C74.3955 8.79855 74.4306 8.7381 74.492 8.6863C74.5534 8.63449 74.6675 8.59995 74.8078 8.58268C74.9482 8.56541 75.0798 8.54814 75.1851 8.53951C75.2903 8.53087 75.4483 8.52224 75.65 8.5136C75.8518 8.50497 75.9834 8.5136 76.0624 8.5136H88.5815C89.608 8.5136 90.5818 8.66903 91.4942 8.98851C92.4066 9.30799 93.2225 9.77426 93.9331 10.3787C94.6437 10.9831 95.2052 11.7689 95.6175 12.7273C96.0298 13.6858 96.2316 14.7737 96.2316 15.9739C96.2316 16.8633 96.1263 17.675 95.9158 18.4175C95.7052 19.1601 95.4245 19.7818 95.0823 20.3085C94.7402 20.8352 94.3191 21.3015 93.819 21.716C93.319 22.1304 92.8101 22.4672 92.2925 22.7176C91.7749 22.968 91.1959 23.1839 90.573 23.3652C89.9501 23.5465 89.3711 23.6674 88.8359 23.7538C88.3008 23.8401 87.7481 23.8919 87.1603 23.9351H84.195C84.116 25.5239 84.0722 27.3026 84.0722 29.2799V30.981C84.0371 31.3436 83.8704 31.5249 83.5458 31.5249H74.7903C74.5271 30.8255 74.3867 30.0139 74.3867 29.0986L74.3955 29.09ZM83.0896 18.4607L83.5809 19.1256C84.002 19.1256 84.4055 19.091 84.7916 19.0306C85.1776 18.9702 85.5548 18.8665 85.9233 18.7111C86.2918 18.5557 86.6164 18.3657 86.8795 18.124C87.1427 17.8822 87.3621 17.58 87.5287 17.2173C87.6954 16.8547 87.7744 16.4316 87.7744 15.9653C87.7744 15.6113 87.7218 15.2918 87.6253 15.0155C87.5287 14.7392 87.4059 14.506 87.2743 14.3334C87.1427 14.1607 86.941 14.0052 86.7041 13.8671C86.4672 13.7289 86.2391 13.6339 86.0286 13.5735C85.818 13.5131 85.5548 13.4613 85.2302 13.4181C84.9056 13.3749 84.6424 13.3663 84.4319 13.3576C84.2213 13.349 83.9493 13.3576 83.6247 13.3576C83.2738 13.5217 83.0984 15.2227 83.0984 18.4607H83.0896Z" fill="#FF6726"/>
<path d="M97.7402 30.602V30.0235C97.7402 28.2966 97.7578 25.7407 97.8016 22.3559C97.8455 18.9711 97.8631 16.4239 97.8631 14.6884V8.40234H115.813V13.8508C115.813 13.8508 115.813 13.9631 115.795 14.0667C115.778 14.1703 115.769 14.248 115.743 14.2825C115.716 14.3171 115.681 14.3775 115.637 14.4552C115.593 14.5329 115.541 14.5848 115.479 14.6107C115.418 14.6366 115.339 14.6711 115.234 14.697C115.128 14.7229 115.014 14.7315 114.892 14.7315H114.462C111.795 14.7315 109.373 14.6884 107.18 14.6107C107.162 14.7747 107.127 15.0251 107.084 15.3619C107.04 15.6986 107.005 16.0008 106.978 16.2599C106.952 16.5189 106.943 16.7693 106.943 17.0111H114.286C114.593 17.0111 114.804 17.0543 114.9 17.132C114.997 17.2097 115.058 17.3478 115.058 17.5292C115.058 17.581 115.058 17.6587 115.041 17.7709C115.023 17.8832 115.023 17.9609 115.023 18.0127C115.023 18.4962 115.041 19.2129 115.067 20.1714C115.093 21.1298 115.111 21.8379 115.111 22.33C115.076 22.5286 114.997 22.6322 114.865 22.6322C114.804 22.6322 114.751 22.615 114.707 22.5718C111.461 22.7359 109.049 22.8136 107.487 22.8136H107.084V24.9981C107.996 24.9981 109.321 24.955 111.058 24.8772C112.795 24.7995 114.084 24.7564 114.953 24.7564C115.628 24.7564 116.023 24.8945 116.129 25.1795V26.3365C116.129 26.82 116.137 27.5367 116.164 28.4952C116.19 29.4536 116.199 30.1616 116.199 30.6538C116.199 31.146 115.997 31.4137 115.585 31.4137C115.049 31.4137 114.225 31.4137 113.119 31.3964C112.014 31.3791 111.163 31.3791 110.593 31.3791C109.11 31.3791 106.996 31.4137 104.241 31.4914C101.486 31.5691 99.4948 31.6123 98.2578 31.6209L97.828 31.1374C97.7841 30.8524 97.7666 30.6711 97.7666 30.5934L97.7402 30.602Z" fill="#FF6726"/>
<path d="M116.217 12.9708C116.217 12.7895 116.226 12.5218 116.252 12.1591C116.278 11.7965 116.287 11.5547 116.287 11.4252C116.287 11.3734 116.278 11.1921 116.252 10.8812C116.226 10.5704 116.217 10.294 116.217 10.0609C116.217 8.99022 116.322 8.45487 116.524 8.45487C116.603 8.45487 116.682 8.4635 116.743 8.48941C118.893 8.48941 122.077 8.4635 126.297 8.4117C130.517 8.35989 133.675 8.33398 135.772 8.33398C136.298 8.33398 136.632 8.37716 136.763 8.47214C136.895 8.56712 136.974 8.73981 136.974 9.00749V9.43058C136.974 9.9573 136.974 10.7344 136.991 11.7619C137.009 12.7895 137.009 13.5666 137.009 14.1106C137.009 14.6545 136.869 14.8963 136.579 14.8963C136 14.8963 135.149 14.8877 134 14.8618C132.851 14.8359 132 14.8272 131.42 14.8272V31.0949C131.35 31.3971 131.175 31.5612 130.894 31.5785C130.534 31.5785 130.008 31.5785 129.324 31.5612C128.639 31.5439 128.113 31.5439 127.753 31.5439C127.736 31.5439 127.709 31.5525 127.692 31.5785C127.236 31.5785 126.604 31.5785 125.788 31.5612C124.972 31.5439 124.358 31.5439 123.963 31.5439H123.042C122.84 31.5612 122.542 31.5785 122.147 31.5785L121.533 30.8531C121.533 29.3162 121.586 27.028 121.691 23.9886C121.796 20.9492 121.849 18.6697 121.849 17.1241C121.849 17.055 121.849 16.9341 121.849 16.7787C121.849 16.6232 121.849 16.4851 121.849 16.3815C121.849 16.2779 121.849 16.157 121.823 16.0016C121.796 15.8461 121.779 15.7252 121.744 15.6303C121.709 15.5353 121.665 15.4403 121.612 15.3453C121.56 15.2503 121.489 15.1813 121.402 15.1295C121.314 15.0776 121.209 15.0604 121.086 15.0604H116.673C116.383 14.9827 116.243 14.2833 116.243 12.9622L116.217 12.9708Z" fill="#FF6726"/>
<path d="M51.6913 7.94388C52.6071 7.94388 53.3494 7.07019 53.3494 5.99245C53.3494 4.9147 52.6071 4.04102 51.6913 4.04102C50.7756 4.04102 50.0332 4.9147 50.0332 5.99245C50.0332 7.07019 50.7756 7.94388 51.6913 7.94388Z" fill="#FF6726"/>
<path d="M67.6327 7.94388C68.5485 7.94388 69.2908 7.07019 69.2908 5.99245C69.2908 4.9147 68.5485 4.04102 67.6327 4.04102C66.717 4.04102 65.9746 4.9147 65.9746 5.99245C65.9746 7.07019 66.717 7.94388 67.6327 7.94388Z" fill="#FF6726"/>
<path d="M56.5598 5.99244C57.9649 5.99244 59.104 4.65099 59.104 2.99622C59.104 1.34145 57.9649 0 56.5598 0C55.1547 0 54.0156 1.34145 54.0156 2.99622C54.0156 4.65099 55.1547 5.99244 56.5598 5.99244Z" fill="#FF6726"/>
<path d="M62.7883 5.99244C64.1934 5.99244 65.3325 4.65099 65.3325 2.99622C65.3325 1.34145 64.1934 0 62.7883 0C61.3832 0 60.2441 1.34145 60.2441 2.99622C60.2441 4.65099 61.3832 5.99244 62.7883 5.99244Z" fill="#FF6726"/>
</g>
<defs>
<clipPath id="clip0_3863_2389">
<rect width="137" height="32" fill="white"/>
</clipPath>
</defs>
</svg>
